<?xml version="1.0" standalone="no"?>
<!DOCTYPE svg PUBLIC "-//W3C//DTD SVG 20010904//EN"
 "http://www.w3.org/TR/2001/REC-SVG-20010904/DTD/svg10.dtd">
<svg version="1.0" xmlns="http://www.w3.org/2000/svg"
 width="256.000000pt" height="256.000000pt" viewBox="0 0 256.000000 256.000000"
 preserveAspectRatio="xMidYMid meet">

<g transform="translate(0.000000,256.000000) scale(0.100000,-0.100000)"
fill="#000000" stroke="none">
<path d="M1235 2549 c-17 -4 -44 -23 -61 -41 -35 -38 -1158 -2196 -1167 -2244
-8 -43 10 -113 40 -152 48 -64 165 -92 233 -57 16 8 233 136 483 284 l454 270
339 -175 c187 -97 429 -223 539 -282 171 -90 208 -106 256 -110 43 -3 65 1 97
17 76 39 121 130 103 210 -13 58 -1126 2199 -1164 2239 -17 18 -47 37 -67 42
-40 11 -44 11 -85 -1z m285 -841 c129 -249 235 -456 235 -461 0 -11 -1369
-826 -1373 -817 -3 9 890 1730 898 1730 3 0 111 -204 240 -452z m518 -995 c84
-162 151 -297 149 -299 -5 -5 -747 358 -747 365 0 6 429 230 440 230 3 0 74
-133 158 -296z"/>
</g>
</svg>
